<svg id="visual" viewBox="0 0 900 600" width="900" height="600" xmlns="http://www.w3.org/2000/svg" xmlns:xlink="http://www.w3.org/1999/xlink" version="1.1"><rect x="0" y="0" width="900" height="600" fill="#001220"></rect><path d="M0 381L25 378.5C50 376 100 371 150 365C200 359 250 352 300 367C350 382 400 419 450 433.8C500 448.7 550 441.3 600 425.2C650 409 700 384 750 383.8C800 383.7 850 408.3 875 420.7L900 433L900 601L875 601C850 601 800 601 750 601C700 601 650 601 600 601C550 601 500 601 450 601C400 601 350 601 300 601C250 601 200 601 150 601C100 601 50 601 25 601L0 601Z" fill="#6600ff"></path><path d="M0 415L25 416.5C50 418 100 421 150 434C200 447 250 470 300 476.2C350 482.3 400 471.7 450 469.5C500 467.3 550 473.7 600 476C650 478.3 700 476.7 750 467.5C800 458.3 850 441.7 875 433.3L900 425L900 601L875 601C850 601 800 601 750 601C700 601 650 601 600 601C550 601 500 601 450 601C400 601 350 601 300 601C250 601 200 601 150 601C100 601 50 601 25 601L0 601Z" fill="#672bfd"></path><path d="M0 501L25 498.2C50 495.3 100 489.7 150 490.7C200 491.7 250 499.3 300 499.8C350 500.3 400 493.7 450 493.5C500 493.3 550 499.7 600 499.3C650 499 700 492 750 487.5C800 483 850 481 875 480L900 479L900 601L875 601C850 601 800 601 750 601C700 601 650 601 600 601C550 601 500 601 450 601C400 601 350 601 300 601C250 601 200 601 150 601C100 601 50 601 25 601L0 601Z" fill="#6940fa"></path><path d="M0 514L25 513.3C50 512.7 100 511.3 150 505.2C200 499 250 488 300 493.3C350 498.7 400 520.3 450 525.3C500 530.3 550 518.7 600 516.8C650 515 700 523 750 523.2C800 523.3 850 515.7 875 511.8L900 508L900 601L875 601C850 601 800 601 750 601C700 601 650 601 600 601C550 601 500 601 450 601C400 601 350 601 300 601C250 601 200 601 150 601C100 601 50 601 25 601L0 601Z" fill="#6c50f6"></path><path d="M0 568L25 562C50 556 100 544 150 544.2C200 544.3 250 556.7 300 559.3C350 562 400 555 450 555.2C500 555.3 550 562.7 600 567.5C650 572.3 700 574.7 750 568.3C800 562 850 547 875 539.5L900 532L900 601L875 601C850 601 800 601 750 601C700 601 650 601 600 601C550 601 500 601 450 601C400 601 350 601 300 601C250 601 200 601 150 601C100 601 50 601 25 601L0 601Z" fill="#715df2"></path></svg>