<svg width="500" height="150" viewBox="0 0 1110 354" fill="none" xmlns="http://www.w3.org/2000/svg">
<rect width="1110" height="354" fill="white"/>
<path fill-rule="evenodd" clip-rule="evenodd" d="M71 24C48.9086 24 31 41.9086 31 64V273C31 295.091 48.9086 313 71 313H294C316.091 313 334 295.091 334 273V64C334 41.9086 316.091 24 294 24H71ZM463.131 118.92V132.312H436.491V219H420.075V132.312H393.291V118.92H463.131ZM547.868 138.36C554.108 138.36 559.676 139.656 564.572 142.248C569.564 144.84 573.452 148.68 576.236 153.768C579.02 158.856 580.412 165 580.412 172.2V219H564.14V174.648C564.14 167.544 562.364 162.12 558.812 158.376C555.26 154.536 550.412 152.616 544.268 152.616C538.124 152.616 533.228 154.536 529.58 158.376C526.028 162.12 524.252 167.544 524.252 174.648V219H507.836V139.656H524.252V148.728C526.94 145.464 530.348 142.92 534.476 141.096C538.7 139.272 543.164 138.36 547.868 138.36ZM688.328 118.92V132.312H645.848V161.832H678.968V175.224H645.848V219H629.432V118.92H688.328ZM804.341 177.384C804.341 180.36 804.149 183.048 803.765 185.448H743.141C743.621 191.784 745.973 196.872 750.197 200.712C754.421 204.552 759.605 206.472 765.749 206.472C774.581 206.472 780.821 202.776 784.469 195.384H802.181C799.781 202.68 795.413 208.68 789.077 213.384C782.837 217.992 775.061 220.296 765.749 220.296C758.165 220.296 751.349 218.616 745.301 215.256C739.349 211.8 734.645 207 731.189 200.856C727.829 194.616 726.149 187.416 726.149 179.256C726.149 171.096 727.781 163.944 731.045 157.8C734.405 151.56 739.061 146.76 745.013 143.4C751.061 140.04 757.973 138.36 765.749 138.36C773.237 138.36 779.909 139.992 785.765 143.256C791.621 146.52 796.181 151.128 799.445 157.08C802.709 162.936 804.341 169.704 804.341 177.384ZM787.205 172.2C787.109 166.152 784.949 161.304 780.725 157.656C776.501 154.008 771.269 152.184 765.029 152.184C759.365 152.184 754.517 154.008 750.485 157.656C746.453 161.208 744.053 166.056 743.285 172.2H787.205ZM921.296 177.384C921.296 180.36 921.104 183.048 920.72 185.448H860.096C860.576 191.784 862.928 196.872 867.152 200.712C871.376 204.552 876.56 206.472 882.704 206.472C891.536 206.472 897.776 202.776 901.424 195.384H919.136C916.736 202.68 912.368 208.68 906.032 213.384C899.792 217.992 892.016 220.296 882.704 220.296C875.12 220.296 868.304 218.616 862.256 215.256C856.304 211.8 851.6 207 848.144 200.856C844.784 194.616 843.104 187.416 843.104 179.256C843.104 171.096 844.736 163.944 848 157.8C851.36 151.56 856.016 146.76 861.968 143.4C868.016 140.04 874.928 138.36 882.704 138.36C890.192 138.36 896.864 139.992 902.72 143.256C908.576 146.52 913.136 151.128 916.4 157.08C919.664 162.936 921.296 169.704 921.296 177.384ZM904.16 172.2C904.064 166.152 901.904 161.304 897.68 157.656C893.456 154.008 888.224 152.184 881.984 152.184C876.32 152.184 871.472 154.008 867.44 157.656C863.408 161.208 861.008 166.056 860.24 172.2H904.16ZM960.059 178.968C960.059 171 961.691 163.944 964.955 157.8C968.315 151.656 972.827 146.904 978.491 143.544C984.251 140.088 990.635 138.36 997.643 138.36C1002.83 138.36 1007.92 139.512 1012.91 141.816C1018 144.024 1022.03 147 1025 150.744V112.44H1041.56V219H1025V207.048C1022.32 210.888 1018.57 214.056 1013.77 216.552C1009.07 219.048 1003.64 220.296 997.499 220.296C990.587 220.296 984.251 218.568 978.491 215.112C972.827 211.56 968.315 206.664 964.955 200.424C961.691 194.088 960.059 186.936 960.059 178.968ZM1025 179.256C1025 173.784 1023.85 169.032 1021.55 165C1019.34 160.968 1016.41 157.896 1012.76 155.784C1009.12 153.672 1005.18 152.616 1000.96 152.616C996.731 152.616 992.795 153.672 989.147 155.784C985.499 157.8 982.523 160.824 980.219 164.856C978.011 168.792 976.907 173.496 976.907 178.968C976.907 184.44 978.011 189.24 980.219 193.368C982.523 197.496 985.499 200.664 989.147 202.872C992.891 204.984 996.827 206.04 1000.96 206.04C1005.18 206.04 1009.12 204.984 1012.76 202.872C1016.41 200.76 1019.34 197.688 1021.55 193.656C1023.85 189.528 1025 184.728 1025 179.256ZM500 239H585V253H500V239Z" fill="#A975FF"/>
<path d="M182.302 258.35C178.162 258.35 174.742 257.09 172.042 254.57C169.522 251.87 168.262 248.45 168.262 244.31V89.87H114.262C105.622 89.87 101.302 86 101.302 78.26C101.302 74.48 102.382 71.6 104.542 69.62C106.882 67.64 110.122 66.65 114.262 66.65H250.342C254.482 66.65 257.632 67.64 259.792 69.62C262.132 71.6 263.302 74.48 263.302 78.26C263.302 86 258.982 89.87 250.342 89.87H196.342V244.31C196.342 248.45 195.082 251.87 192.562 254.57C190.042 257.09 186.622 258.35 182.302 258.35Z" fill="white"/>
</svg>
